<?xml version="1.0" standalone="no"?><!DOCTYPE svg PUBLIC "-//W3C//DTD SVG 1.1//EN" "http://www.w3.org/Graphics/SVG/1.1/DTD/svg11.dtd"><svg class="icon" width="200px" height="200.00px" viewBox="0 0 1024 1024" version="1.1" xmlns="http://www.w3.org/2000/svg"><path d="M511.461741 64.754816c-244.067738 0-441.921945 197.85523-441.921945 441.923992 0 244.069785 197.856253 441.921945 441.923992 441.921945s441.921945-197.854207 441.921944-441.921945S755.530502 64.754816 511.461741 64.754816z m214.391858 601.61911c7.312546 7.313569 11.342326 17.036002 11.342326 27.379581s-4.030803 20.068058-11.344372 27.380604c-7.312546 7.313569-17.036002 11.341303-27.379581 11.341303s-20.067035-4.02671-27.379581-11.341303l-157.191088-157.190065L356.708168 721.135134c-7.314593 7.313569-17.037025 11.341303-27.380604 11.341303s-20.067035-4.02671-27.379581-11.341303c-7.313569-7.312546-11.342326-17.036002-11.342326-27.378557s4.027733-20.067035 11.342326-27.379581l157.191089-157.193135L301.945937 351.989703c-7.313569-7.313569-11.342326-17.037025-11.342326-27.380604s4.028757-20.068058 11.342326-27.380604c7.313569-7.313569 17.036002-11.341303 27.378557-11.341303 10.343579 0 20.068058 4.027733 27.380604 11.341303L513.898233 454.420607l157.190065-157.192112c7.313569-7.313569 17.036002-11.341303 27.379581-11.341303 10.344602 0 20.068058 4.027733 27.380604 11.341303 7.313569 7.313569 11.342326 17.037025 11.342326 27.380604s-4.02978 20.069081-11.342326 27.380604L568.661488 509.182838l157.192111 157.191088z" fill="#F66762" /></svg>